<?xml version="1.0" standalone="no"?>
<!DOCTYPE svg PUBLIC "-//W3C//DTD SVG 20010904//EN"
 "http://www.w3.org/TR/2001/REC-SVG-20010904/DTD/svg10.dtd">
<svg version="1.0" xmlns="http://www.w3.org/2000/svg"
 width="400.000000pt" height="475.000000pt" viewBox="0 0 400.000000 475.000000"
 preserveAspectRatio="xMidYMid meet">

<g transform="translate(0.000000,475.000000) scale(0.100000,-0.100000)"
fill="#000000" stroke="none">
<path d="M3374 4644 c-50 -8 -151 -30 -225 -49 -74 -20 -159 -42 -190 -50 -87
-22 -285 -107 -379 -163 -252 -150 -289 -176 -389 -276 -55 -56 -115 -121
-133 -146 -49 -65 -76 -65 -142 -3 -89 85 -151 121 -239 137 -13 2 -53 15 -88
29 -35 14 -91 28 -124 32 -147 17 -271 26 -412 31 -133 5 -163 3 -235 -14 -46
-12 -96 -23 -113 -26 -86 -14 -231 -48 -313 -73 -111 -34 -152 -64 -152 -110
0 -18 5 -33 10 -33 6 0 10 -17 10 -38 0 -111 184 -355 358 -474 67 -45 112
-95 112 -124 0 -7 -20 -40 -44 -75 -145 -214 -193 -398 -165 -644 20 -176 18
-186 -70 -310 -60 -83 -96 -176 -105 -265 -4 -36 -14 -107 -23 -158 -17 -99
-14 -125 27 -217 10 -22 26 -62 36 -90 24 -68 61 -121 144 -205 86 -88 98
-109 115 -216 15 -96 26 -120 130 -283 123 -193 231 -286 412 -350 82 -29 164
-69 253 -121 63 -37 134 -64 208 -79 74 -15 343 -13 419 3 34 7 64 12 66 9 3
-2 35 4 72 13 48 12 94 34 157 76 113 76 148 91 292 128 205 53 285 103 395
250 30 41 75 99 99 129 52 65 77 103 128 201 30 58 68 105 166 205 82 85 152
169 201 242 114 168 127 235 82 411 -36 143 -58 207 -115 335 -28 64 -57 146
-65 184 -8 37 -21 94 -30 126 -9 33 -15 101 -15 160 0 158 -41 294 -128 428
-54 84 -175 149 -282 150 -68 1 -93 17 -88 55 2 24 15 35 81 70 49 26 99 63
135 100 32 32 72 66 89 76 17 9 44 36 59 60 15 23 51 79 80 123 119 181 181
332 209 509 18 111 11 169 -31 264 -34 77 -67 84 -250 56z m5 -154 c87 -25
122 -108 101 -238 -33 -213 -73 -288 -248 -465 l-137 -137 -180 -91 c-235
-118 -339 -138 -381 -74 -15 24 -15 28 11 80 15 31 55 85 90 121 35 35 85 95
111 132 44 61 126 167 181 231 24 28 29 56 13 66 -6 4 -30 -11 -54 -32 -24
-21 -64 -55 -88 -75 -25 -20 -91 -97 -147 -171 -90 -120 -154 -194 -126 -147
5 8 -22 -14 -61 -49 -128 -117 -204 -136 -281 -68 -66 58 -80 143 -44 251 25
71 35 84 124 175 103 105 305 238 493 326 82 38 244 92 333 110 18 4 52 16 76
26 36 16 114 34 165 38 8 0 31 -3 49 -9z m-1949 -459 c127 -22 270 -67 335
-106 76 -44 153 -146 170 -223 14 -66 -54 -152 -132 -168 -21 -4 -58 2 -104
16 -40 12 -89 23 -108 25 -20 2 -52 10 -71 18 -34 14 -93 26 -231 45 -44 7
-80 19 -105 36 -42 28 -54 32 -54 16 0 -19 40 -50 65 -50 14 0 47 -14 74 -30
27 -17 73 -39 104 -49 87 -30 99 -39 95 -69 l-3 -27 -160 -6 c-122 -5 -176
-12 -230 -28 -105 -33 -157 -41 -199 -31 -158 35 -426 328 -426 466 0 70 95
134 222 149 47 6 179 27 248 39 63 12 400 -4 510 -23z"/>
</g>
</svg>
